STARTFONT 2.1
FONT -FontForge-Bm437 CompaqThin 8x8-Normal-R-Normal--8-60-96-96-C-80-WinRoman-0
SIZE 6 96 96
FONTBOUNDINGBOX 8 8 0 -1
COMMENT "Generated by fontforge, http://fontforge.sourceforge.net"
COMMENT "FON conversion by VileR, 2020; license: CC BY-SA 4.0"
STARTPROPERTIES 34
FOUNDRY "FontForge"
FAMILY_NAME "Bm437 CompaqThin 8x8"
WEIGHT_NAME "Normal"
SLANT "R"
SETWIDTH_NAME "Normal"
ADD_STYLE_NAME ""
PIXEL_SIZE 8
POINT_SIZE 60
RESOLUTION_X 96
RESOLUTION_Y 96
SPACING "C"
AVERAGE_WIDTH 80
CHARSET_REGISTRY "WinRoman"
CHARSET_ENCODING "0"
FONTNAME_REGISTRY ""
CHARSET_COLLECTIONS "WinRoman"
FONT_NAME "Bm437CompaqThin8x8"
FACE_NAME "Bm437 CompaqThin 8x8"
COPYRIGHT "FON conversion by VileR, 2020; license: CC BY-SA 4.0"
FONT_VERSION "001.000"
FONT_ASCENT 6
FONT_DESCENT 2
UNDERLINE_POSITION -1
UNDERLINE_THICKNESS 1
X_HEIGHT 4
CAP_HEIGHT 6
RAW_ASCENT 800
RAW_DESCENT 200
NORM_SPACE 8
RELATIVE_WEIGHT 40
RELATIVE_SETWIDTH 50
FIGURE_WIDTH 8
AVG_LOWERCASE_WIDTH 80
AVG_UPPERCASE_WIDTH 80
ENDPROPERTIES
CHARS 256
STARTCHAR uni0000
ENCODING 0
SWIDTH 1000 0
DWIDTH 8 0
BBX 1 1 7 -1
BITMAP
00
ENDCHAR
STARTCHAR uni0001
ENCODING 1
SWIDTH 1000 0
DWIDTH 8 0
BBX 8 8 0 -1
BITMAP
7E
81
A5
81
BD
99
81
7E
ENDCHAR
STARTCHAR uni0002
ENCODING 2
SWIDTH 1000 0
DWIDTH 8 0
BBX 8 8 0 -1
BITMAP
7E
FF
DB
FF
C3
E7
FF
7E
ENDCHAR
STARTCHAR uni0003
ENCODING 3
SWIDTH 1000 0
DWIDTH 8 0
BBX 7 7 0 0
BITMAP
6C
FE
FE
FE
7C
38
10
ENDCHAR
STARTCHAR uni0004
ENCODING 4
SWIDTH 1000 0
DWIDTH 8 0
BBX 7 7 0 0
BITMAP
10
38
7C
FE
7C
38
10
ENDCHAR
STARTCHAR uni0005
ENCODING 5
SWIDTH 1000 0
DWIDTH 8 0
BBX 7 8 0 -1
BITMAP
38
7C
38
FE
D6
10
10
7C
ENDCHAR
STARTCHAR uni0006
ENCODING 6
SWIDTH 1000 0
DWIDTH 8 0
BBX 7 8 0 -1
BITMAP
10
10
38
7C
FE
7C
10
7C
ENDCHAR
STARTCHAR uni0007
ENCODING 7
SWIDTH 1000 0
DWIDTH 8 0
BBX 4 4 2 1
BITMAP
60
F0
F0
60
ENDCHAR
STARTCHAR uni0008
ENCODING 8
SWIDTH 1000 0
DWIDTH 8 0
BBX 8 8 0 -1
BITMAP
FF
FF
E7
C3
C3
E7
FF
FF
ENDCHAR
STARTCHAR uni0009
ENCODING 9
SWIDTH 1000 0
DWIDTH 8 0
BBX 6 6 1 0
BITMAP
78
CC
84
84
CC
78
ENDCHAR
STARTCHAR uni000A
ENCODING 10
SWIDTH 1000 0
DWIDTH 8 0
BBX 8 8 0 -1
BITMAP
FF
C3
99
BD
BD
99
C3
FF
ENDCHAR
STARTCHAR uni000B
ENCODING 11
SWIDTH 1000 0
DWIDTH 8 0
BBX 8 8 0 -1
BITMAP
1F
03
05
7D
84
84
84
78
ENDCHAR
STARTCHAR uni000C
ENCODING 12
SWIDTH 1000 0
DWIDTH 8 0
BBX 7 8 1 -1
BITMAP
7C
82
82
82
7C
10
7C
10
ENDCHAR
STARTCHAR uni000D
ENCODING 13
SWIDTH 1000 0
DWIDTH 8 0
BBX 8 8 0 -1
BITMAP
3F
21
3F
20
20
20
60
C0
ENDCHAR
STARTCHAR uni000E
ENCODING 14
SWIDTH 1000 0
DWIDTH 8 0
BBX 8 8 0 -1
BITMAP
3F
21
3F
21
21
23
66
C0
ENDCHAR
STARTCHAR uni000F
ENCODING 15
SWIDTH 1000 0
DWIDTH 8 0
BBX 8 8 0 -1
BITMAP
99
5A
3C
E7
E7
3C
5A
99
ENDCHAR
STARTCHAR uni0010
ENCODING 16
SWIDTH 1000 0
DWIDTH 8 0
BBX 7 7 0 0
BITMAP
80
E0
F8
FE
F8
E0
80
ENDCHAR
STARTCHAR uni0011
ENCODING 17
SWIDTH 1000 0
DWIDTH 8 0
BBX 7 7 0 0
BITMAP
02
0E
3E
FE
3E
0E
02
ENDCHAR
STARTCHAR uni0012
ENCODING 18
SWIDTH 1000 0
DWIDTH 8 0
BBX 5 8 1 -1
BITMAP
20
70
F8
20
20
F8
70
20
ENDCHAR
STARTCHAR uni0013
ENCODING 19
SWIDTH 1000 0
DWIDTH 8 0
BBX 4 7 2 0
BITMAP
90
90
90
90
90
00
90
ENDCHAR
STARTCHAR uni0014
ENCODING 20
SWIDTH 1000 0
DWIDTH 8 0
BBX 8 7 0 0
BITMAP
7F
92
92
72
12
12
12
ENDCHAR
STARTCHAR uni0015
ENCODING 21
SWIDTH 1000 0
DWIDTH 8 0
BBX 8 8 0 -1
BITMAP
3E
61
38
44
44
38
8C
78
ENDCHAR
STARTCHAR uni0016
ENCODING 22
SWIDTH 1000 0
DWIDTH 8 0
BBX 6 3 1 0
BITMAP
FC
FC
FC
ENDCHAR
STARTCHAR uni0017
ENCODING 23
SWIDTH 1000 0
DWIDTH 8 0
BBX 7 8 0 -1
BITMAP
10
38
7C
10
7C
38
10
FE
ENDCHAR
STARTCHAR uni0018
ENCODING 24
SWIDTH 1000 0
DWIDTH 8 0
BBX 5 7 1 0
BITMAP
20
70
F8
20
20
20
20
ENDCHAR
STARTCHAR uni0019
ENCODING 25
SWIDTH 1000 0
DWIDTH 8 0
BBX 5 7 1 0
BITMAP
20
20
20
20
F8
70
20
ENDCHAR
STARTCHAR uni001A
ENCODING 26
SWIDTH 1000 0
DWIDTH 8 0
BBX 7 5 0 1
BITMAP
08
04
FE
04
08
ENDCHAR
STARTCHAR uni001B
ENCODING 27
SWIDTH 1000 0
DWIDTH 8 0
BBX 7 5 0 1
BITMAP
20
40
FE
40
20
ENDCHAR
STARTCHAR uni001C
ENCODING 28
SWIDTH 1000 0
DWIDTH 8 0
BBX 7 4 0 1
BITMAP
80
80
80
FE
ENDCHAR
STARTCHAR uni001D
ENCODING 29
SWIDTH 1000 0
DWIDTH 8 0
BBX 8 5 0 1
BITMAP
24
66
FF
66
24
ENDCHAR
STARTCHAR uni001E
ENCODING 30
SWIDTH 1000 0
DWIDTH 8 0
BBX 8 5 0 1
BITMAP
18
3C
7E
FF
FF
ENDCHAR
STARTCHAR uni001F
ENCODING 31
SWIDTH 1000 0
DWIDTH 8 0
BBX 8 5 0 1
BITMAP
FF
FF
7E
3C
18
ENDCHAR
STARTCHAR space
ENCODING 32
SWIDTH 1000 0
DWIDTH 8 0
BBX 1 1 7 -1
BITMAP
00
ENDCHAR
STARTCHAR exclam
ENCODING 33
SWIDTH 1000 0
DWIDTH 8 0
BBX 3 7 2 0
BITMAP
40
E0
E0
40
40
00
40
ENDCHAR
STARTCHAR quotedbl
ENCODING 34
SWIDTH 1000 0
DWIDTH 8 0
BBX 4 3 2 4
BITMAP
90
90
90
ENDCHAR
STARTCHAR numbersign
ENCODING 35
SWIDTH 1000 0
DWIDTH 8 0
BBX 8 7 0 0
BITMAP
24
24
FF
24
FF
24
24
ENDCHAR
STARTCHAR dollar
ENCODING 36
SWIDTH 1000 0
DWIDTH 8 0
BBX 6 7 0 0
BITMAP
10
7C
80
78
04
F8
10
ENDCHAR
STARTCHAR percent
ENCODING 37
SWIDTH 1000 0
DWIDTH 8 0
BBX 7 6 0 0
BITMAP
C6
CC
18
30
66
C6
ENDCHAR
STARTCHAR ampersand
ENCODING 38
SWIDTH 1000 0
DWIDTH 8 0
BBX 7 7 0 0
BITMAP
38
44
38
56
84
84
76
ENDCHAR
STARTCHAR quotesingle
ENCODING 39
SWIDTH 1000 0
DWIDTH 8 0
BBX 2 3 1 4
BITMAP
40
40
80
ENDCHAR
STARTCHAR parenleft
ENCODING 40
SWIDTH 1000 0
DWIDTH 8 0
BBX 3 7 1 0
BITMAP
20
40
80
80
80
40
20
ENDCHAR
STARTCHAR parenright
ENCODING 41
SWIDTH 1000 0
DWIDTH 8 0
BBX 3 7 2 0
BITMAP
80
40
20
20
20
40
80
ENDCHAR
STARTCHAR asterisk
ENCODING 42
SWIDTH 1000 0
DWIDTH 8 0
BBX 7 5 0 1
BITMAP
44
38
FE
38
44
ENDCHAR
STARTCHAR plus
ENCODING 43
SWIDTH 1000 0
DWIDTH 8 0
BBX 7 5 0 1
BITMAP
10
10
FE
10
10
ENDCHAR
STARTCHAR comma
ENCODING 44
SWIDTH 1000 0
DWIDTH 8 0
BBX 2 3 2 -1
BITMAP
40
40
80
ENDCHAR
STARTCHAR hyphen
ENCODING 45
SWIDTH 1000 0
DWIDTH 8 0
BBX 6 1 0 3
BITMAP
FC
ENDCHAR
STARTCHAR period
ENCODING 46
SWIDTH 1000 0
DWIDTH 8 0
BBX 1 2 3 0
BITMAP
80
80
ENDCHAR
STARTCHAR slash
ENCODING 47
SWIDTH 1000 0
DWIDTH 8 0
BBX 7 7 0 0
BITMAP
02
04
08
10
20
40
80
ENDCHAR
STARTCHAR zero
ENCODING 48
SWIDTH 1000 0
DWIDTH 8 0
BBX 7 7 0 0
BITMAP
7C
82
86
8A
92
A2
7C
ENDCHAR
STARTCHAR one
ENCODING 49
SWIDTH 1000 0
DWIDTH 8 0
BBX 5 7 1 0
BITMAP
20
60
20
20
20
20
F8
ENDCHAR
STARTCHAR two
ENCODING 50
SWIDTH 1000 0
DWIDTH 8 0
BBX 6 7 0 0
BITMAP
78
84
04
10
40
84
FC
ENDCHAR
STARTCHAR three
ENCODING 51
SWIDTH 1000 0
DWIDTH 8 0
BBX 6 7 0 0
BITMAP
78
84
04
38
04
84
78
ENDCHAR
STARTCHAR four
ENCODING 52
SWIDTH 1000 0
DWIDTH 8 0
BBX 7 7 0 0
BITMAP
08
18
28
48
FE
08
1C
ENDCHAR
STARTCHAR five
ENCODING 53
SWIDTH 1000 0
DWIDTH 8 0
BBX 6 7 0 0
BITMAP
FC
80
F8
04
04
84
78
ENDCHAR
STARTCHAR six
ENCODING 54
SWIDTH 1000 0
DWIDTH 8 0
BBX 6 7 0 0
BITMAP
38
40
80
F8
84
84
78
ENDCHAR
STARTCHAR seven
ENCODING 55
SWIDTH 1000 0
DWIDTH 8 0
BBX 6 7 0 0
BITMAP
FC
84
08
10
20
20
20
ENDCHAR
STARTCHAR eight
ENCODING 56
SWIDTH 1000 0
DWIDTH 8 0
BBX 6 7 0 0
BITMAP
78
84
84
78
84
84
78
ENDCHAR
STARTCHAR nine
ENCODING 57
SWIDTH 1000 0
DWIDTH 8 0
BBX 6 7 0 0
BITMAP
78
84
84
7C
04
08
70
ENDCHAR
STARTCHAR colon
ENCODING 58
SWIDTH 1000 0
DWIDTH 8 0
BBX 1 6 3 0
BITMAP
80
80
00
00
80
80
ENDCHAR
STARTCHAR semicolon
ENCODING 59
SWIDTH 1000 0
DWIDTH 8 0
BBX 2 7 2 -1
BITMAP
40
40
00
00
40
40
80
ENDCHAR
STARTCHAR less
ENCODING 60
SWIDTH 1000 0
DWIDTH 8 0
BBX 4 7 0 0
BITMAP
10
20
40
80
40
20
10
ENDCHAR
STARTCHAR equal
ENCODING 61
SWIDTH 1000 0
DWIDTH 8 0
BBX 6 4 0 1
BITMAP
FC
00
00
FC
ENDCHAR
STARTCHAR greater
ENCODING 62
SWIDTH 1000 0
DWIDTH 8 0
BBX 4 7 2 0
BITMAP
80
40
20
10
20
40
80
ENDCHAR
STARTCHAR question
ENCODING 63
SWIDTH 1000 0
DWIDTH 8 0
BBX 6 7 0 0
BITMAP
78
84
04
08
10
00
10
ENDCHAR
STARTCHAR at
ENCODING 64
SWIDTH 1000 0
DWIDTH 8 0
BBX 7 7 0 0
BITMAP
7C
82
9E
92
9E
80
78
ENDCHAR
STARTCHAR A
ENCODING 65
SWIDTH 1000 0
DWIDTH 8 0
BBX 6 7 0 0
BITMAP
30
48
84
84
FC
84
84
ENDCHAR
STARTCHAR B
ENCODING 66
SWIDTH 1000 0
DWIDTH 8 0
BBX 7 7 0 0
BITMAP
FC
42
42
7C
42
42
FC
ENDCHAR
STARTCHAR C
ENCODING 67
SWIDTH 1000 0
DWIDTH 8 0
BBX 7 7 0 0
BITMAP
3C
42
80
80
80
42
3C
ENDCHAR
STARTCHAR D
ENCODING 68
SWIDTH 1000 0
DWIDTH 8 0
BBX 7 7 0 0
BITMAP
F8
44
42
42
42
44
F8
ENDCHAR
STARTCHAR E
ENCODING 69
SWIDTH 1000 0
DWIDTH 8 0
BBX 7 7 0 0
BITMAP
FE
42
48
78
48
42
FE
ENDCHAR
STARTCHAR F
ENCODING 70
SWIDTH 1000 0
DWIDTH 8 0
BBX 7 7 0 0
BITMAP
FE
42
48
78
48
40
E0
ENDCHAR
STARTCHAR G
ENCODING 71
SWIDTH 1000 0
DWIDTH 8 0
BBX 7 7 0 0
BITMAP
3C
42
80
80
8E
42
3E
ENDCHAR
STARTCHAR H
ENCODING 72
SWIDTH 1000 0
DWIDTH 8 0
BBX 6 7 0 0
BITMAP
84
84
84
FC
84
84
84
ENDCHAR
STARTCHAR I
ENCODING 73
SWIDTH 1000 0
DWIDTH 8 0
BBX 3 7 2 0
BITMAP
E0
40
40
40
40
40
E0
ENDCHAR
STARTCHAR J
ENCODING 74
SWIDTH 1000 0
DWIDTH 8 0
BBX 6 7 1 0
BITMAP
1C
08
08
08
88
88
70
ENDCHAR
STARTCHAR K
ENCODING 75
SWIDTH 1000 0
DWIDTH 8 0
BBX 7 7 0 0
BITMAP
C2
44
48
70
44
42
C2
ENDCHAR
STARTCHAR L
ENCODING 76
SWIDTH 1000 0
DWIDTH 8 0
BBX 7 7 0 0
BITMAP
E0
40
40
40
40
42
FE
ENDCHAR
STARTCHAR M
ENCODING 77
SWIDTH 1000 0
DWIDTH 8 0
BBX 7 7 0 0
BITMAP
82
C6
AA
92
82
82
82
ENDCHAR
STARTCHAR N
ENCODING 78
SWIDTH 1000 0
DWIDTH 8 0
BBX 7 7 0 0
BITMAP
82
C2
A2
92
8A
86
82
ENDCHAR
STARTCHAR O
ENCODING 79
SWIDTH 1000 0
DWIDTH 8 0
BBX 7 7 0 0
BITMAP
38
44
82
82
82
44
38
ENDCHAR
STARTCHAR P
ENCODING 80
SWIDTH 1000 0
DWIDTH 8 0
BBX 7 7 0 0
BITMAP
FC
42
42
7C
40
40
E0
ENDCHAR
STARTCHAR Q
ENCODING 81
SWIDTH 1000 0
DWIDTH 8 0
BBX 7 8 0 -1
BITMAP
38
44
82
82
82
54
38
04
ENDCHAR
STARTCHAR R
ENCODING 82
SWIDTH 1000 0
DWIDTH 8 0
BBX 7 7 0 0
BITMAP
FC
42
42
7C
44
42
C2
ENDCHAR
STARTCHAR S
ENCODING 83
SWIDTH 1000 0
DWIDTH 8 0
BBX 6 7 0 0
BITMAP
78
84
80
78
04
84
78
ENDCHAR
STARTCHAR T
ENCODING 84
SWIDTH 1000 0
DWIDTH 8 0
BBX 7 7 0 0
BITMAP
FE
92
10
10
10
10
38
ENDCHAR
STARTCHAR U
ENCODING 85
SWIDTH 1000 0
DWIDTH 8 0
BBX 6 7 0 0
BITMAP
84
84
84
84
84
84
FC
ENDCHAR
STARTCHAR V
ENCODING 86
SWIDTH 1000 0
DWIDTH 8 0
BBX 6 7 0 0
BITMAP
84
84
84
84
84
48
30
ENDCHAR
STARTCHAR W
ENCODING 87
SWIDTH 1000 0
DWIDTH 8 0
BBX 7 7 0 0
BITMAP
82
82
82
92
AA
C6
82
ENDCHAR
STARTCHAR X
ENCODING 88
SWIDTH 1000 0
DWIDTH 8 0
BBX 7 7 0 0
BITMAP
82
44
28
10
28
44
82
ENDCHAR
STARTCHAR Y
ENCODING 89
SWIDTH 1000 0
DWIDTH 8 0
BBX 7 7 0 0
BITMAP
82
44
28
10
10
10
38
ENDCHAR
STARTCHAR Z
ENCODING 90
SWIDTH 1000 0
DWIDTH 8 0
BBX 7 7 0 0
BITMAP
FE
84
88
10
22
42
FE
ENDCHAR
STARTCHAR bracketleft
ENCODING 91
SWIDTH 1000 0
DWIDTH 8 0
BBX 4 7 1 0
BITMAP
F0
80
80
80
80
80
F0
ENDCHAR
STARTCHAR backslash
ENCODING 92
SWIDTH 1000 0
DWIDTH 8 0
BBX 7 7 0 0
BITMAP
80
40
20
10
08
04
02
ENDCHAR
STARTCHAR bracketright
ENCODING 93
SWIDTH 1000 0
DWIDTH 8 0
BBX 4 7 1 0
BITMAP
F0
10
10
10
10
10
F0
ENDCHAR
STARTCHAR asciicircum
ENCODING 94
SWIDTH 1000 0
DWIDTH 8 0
BBX 7 4 0 3
BITMAP
10
28
44
82
ENDCHAR
STARTCHAR underscore
ENCODING 95
SWIDTH 1000 0
DWIDTH 8 0
BBX 8 1 0 -1
BITMAP
FF
ENDCHAR
STARTCHAR grave
ENCODING 96
SWIDTH 1000 0
DWIDTH 8 0
BBX 2 3 2 4
BITMAP
80
80
40
ENDCHAR
STARTCHAR a
ENCODING 97
SWIDTH 1000 0
DWIDTH 8 0
BBX 7 5 0 0
BITMAP
78
04
7C
84
76
ENDCHAR
STARTCHAR b
ENCODING 98
SWIDTH 1000 0
DWIDTH 8 0
BBX 7 7 0 0
BITMAP
C0
40
7C
42
42
42
DC
ENDCHAR
STARTCHAR c
ENCODING 99
SWIDTH 1000 0
DWIDTH 8 0
BBX 6 5 0 0
BITMAP
78
84
80
84
78
ENDCHAR
STARTCHAR d
ENCODING 100
SWIDTH 1000 0
DWIDTH 8 0
BBX 7 7 0 0
BITMAP
0C
04
7C
84
84
84
76
ENDCHAR
STARTCHAR e
ENCODING 101
SWIDTH 1000 0
DWIDTH 8 0
BBX 6 5 0 0
BITMAP
78
84
FC
80
78
ENDCHAR
STARTCHAR f
ENCODING 102
SWIDTH 1000 0
DWIDTH 8 0
BBX 6 7 0 0
BITMAP
38
44
40
E0
40
40
E0
ENDCHAR
STARTCHAR g
ENCODING 103
SWIDTH 1000 0
DWIDTH 8 0
BBX 7 6 0 -1
BITMAP
76
84
84
7C
04
F8
ENDCHAR
STARTCHAR h
ENCODING 104
SWIDTH 1000 0
DWIDTH 8 0
BBX 7 7 0 0
BITMAP
C0
40
4C
62
42
42
C2
ENDCHAR
STARTCHAR i
ENCODING 105
SWIDTH 1000 0
DWIDTH 8 0
BBX 3 7 2 0
BITMAP
40
00
C0
40
40
40
E0
ENDCHAR
STARTCHAR j
ENCODING 106
SWIDTH 1000 0
DWIDTH 8 0
BBX 6 8 0 -1
BITMAP
04
00
04
04
04
84
84
78
ENDCHAR
STARTCHAR k
ENCODING 107
SWIDTH 1000 0
DWIDTH 8 0
BBX 7 7 0 0
BITMAP
C0
40
42
44
78
44
C2
ENDCHAR
STARTCHAR l
ENCODING 108
SWIDTH 1000 0
DWIDTH 8 0
BBX 3 7 2 0
BITMAP
C0
40
40
40
40
40
E0
ENDCHAR
STARTCHAR m
ENCODING 109
SWIDTH 1000 0
DWIDTH 8 0
BBX 7 5 0 0
BITMAP
EC
92
92
92
82
ENDCHAR
STARTCHAR n
ENCODING 110
SWIDTH 1000 0
DWIDTH 8 0
BBX 6 5 0 0
BITMAP
F8
84
84
84
84
ENDCHAR
STARTCHAR o
ENCODING 111
SWIDTH 1000 0
DWIDTH 8 0
BBX 6 5 0 0
BITMAP
78
84
84
84
78
ENDCHAR
STARTCHAR p
ENCODING 112
SWIDTH 1000 0
DWIDTH 8 0
BBX 7 6 0 -1
BITMAP
DC
42
42
7C
40
E0
ENDCHAR
STARTCHAR q
ENCODING 113
SWIDTH 1000 0
DWIDTH 8 0
BBX 7 6 0 -1
BITMAP
76
84
84
7C
04
0E
ENDCHAR
STARTCHAR r
ENCODING 114
SWIDTH 1000 0
DWIDTH 8 0
BBX 7 5 0 0
BITMAP
DC
62
40
40
E0
ENDCHAR
STARTCHAR s
ENCODING 115
SWIDTH 1000 0
DWIDTH 8 0
BBX 6 5 0 0
BITMAP
7C
80
78
04
F8
ENDCHAR
STARTCHAR t
ENCODING 116
SWIDTH 1000 0
DWIDTH 8 0
BBX 6 7 1 0
BITMAP
20
20
F8
20
20
24
18
ENDCHAR
STARTCHAR u
ENCODING 117
SWIDTH 1000 0
DWIDTH 8 0
BBX 7 5 0 0
BITMAP
84
84
84
84
76
ENDCHAR
STARTCHAR v
ENCODING 118
SWIDTH 1000 0
DWIDTH 8 0
BBX 6 5 0 0
BITMAP
84
84
84
48
30
ENDCHAR
STARTCHAR w
ENCODING 119
SWIDTH 1000 0
DWIDTH 8 0
BBX 7 5 0 0
BITMAP
82
92
AA
C6
82
ENDCHAR
STARTCHAR x
ENCODING 120
SWIDTH 1000 0
DWIDTH 8 0
BBX 6 5 0 0
BITMAP
84
48
30
48
84
ENDCHAR
STARTCHAR y
ENCODING 121
SWIDTH 1000 0
DWIDTH 8 0
BBX 6 6 0 -1
BITMAP
84
84
84
7C
04
F8
ENDCHAR
STARTCHAR z
ENCODING 122
SWIDTH 1000 0
DWIDTH 8 0
BBX 6 5 0 0
BITMAP
FC
88
30
44
FC
ENDCHAR
STARTCHAR braceleft
ENCODING 123
SWIDTH 1000 0
DWIDTH 8 0
BBX 5 7 0 0
BITMAP
18
20
20
C0
20
20
18
ENDCHAR
STARTCHAR bar
ENCODING 124
SWIDTH 1000 0
DWIDTH 8 0
BBX 1 7 3 0
BITMAP
80
80
80
00
80
80
80
ENDCHAR
STARTCHAR braceright
ENCODING 125
SWIDTH 1000 0
DWIDTH 8 0
BBX 5 7 1 0
BITMAP
C0
20
20
18
20
20
C0
ENDCHAR
STARTCHAR asciitilde
ENCODING 126
SWIDTH 1000 0
DWIDTH 8 0
BBX 6 2 0 5
BITMAP
64
98
ENDCHAR
STARTCHAR uni007F
ENCODING 127
SWIDTH 1000 0
DWIDTH 8 0
BBX 7 6 0 0
BITMAP
10
28
44
82
82
FE
ENDCHAR
STARTCHAR Euro
ENCODING 128
SWIDTH 1000 0
DWIDTH 8 0
BBX 6 8 0 -1
BITMAP
78
84
80
84
78
18
04
78
ENDCHAR
STARTCHAR NameMe.129
ENCODING 129
SWIDTH 1000 0
DWIDTH 8 0
BBX 7 6 0 0
BITMAP
84
00
84
84
84
7A
ENDCHAR
STARTCHAR quotesinglbase
ENCODING 130
SWIDTH 1000 0
DWIDTH 8 0
BBX 6 7 0 0
BITMAP
0C
00
78
84
FC
80
78
ENDCHAR
STARTCHAR florin
ENCODING 131
SWIDTH 1000 0
DWIDTH 8 0
BBX 8 7 0 0
BITMAP
7E
81
3C
02
3E
42
3D
ENDCHAR
STARTCHAR quotedblbase
ENCODING 132
SWIDTH 1000 0
DWIDTH 8 0
BBX 7 7 0 0
BITMAP
84
00
78
04
7C
84
7A
ENDCHAR
STARTCHAR ellipsis
ENCODING 133
SWIDTH 1000 0
DWIDTH 8 0
BBX 7 7 0 0
BITMAP
C0
00
78
04
7C
84
7A
ENDCHAR
STARTCHAR dagger
ENCODING 134
SWIDTH 1000 0
DWIDTH 8 0
BBX 7 7 0 0
BITMAP
20
20
78
04
7C
84
7A
ENDCHAR
STARTCHAR daggerdbl
ENCODING 135
SWIDTH 1000 0
DWIDTH 8 0
BBX 6 6 0 -1
BITMAP
78
80
80
78
04
38
ENDCHAR
STARTCHAR circumflex
ENCODING 136
SWIDTH 1000 0
DWIDTH 8 0
BBX 8 7 0 0
BITMAP
7E
81
3C
42
7E
40
3C
ENDCHAR
STARTCHAR perthousand
ENCODING 137
SWIDTH 1000 0
DWIDTH 8 0
BBX 6 7 0 0
BITMAP
84
00
78
84
FC
80
78
ENDCHAR
STARTCHAR Scaron
ENCODING 138
SWIDTH 1000 0
DWIDTH 8 0
BBX 6 7 0 0
BITMAP
60
00
78
84
FC
80
78
ENDCHAR
STARTCHAR guilsinglleft
ENCODING 139
SWIDTH 1000 0
DWIDTH 8 0
BBX 4 7 1 0
BITMAP
90
00
60
20
20
20
70
ENDCHAR
STARTCHAR OE
ENCODING 140
SWIDTH 1000 0
DWIDTH 8 0
BBX 7 7 0 0
BITMAP
7C
82
30
10
10
10
38
ENDCHAR
STARTCHAR NameMe.141
ENCODING 141
SWIDTH 1000 0
DWIDTH 8 0
BBX 4 7 1 0
BITMAP
C0
00
60
20
20
20
70
ENDCHAR
STARTCHAR Zcaron
ENCODING 142
SWIDTH 1000 0
DWIDTH 8 0
BBX 7 7 0 0
BITMAP
82
38
44
82
FE
82
82
ENDCHAR
STARTCHAR NameMe.143
ENCODING 143
SWIDTH 1000 0
DWIDTH 8 0
BBX 7 7 0 0
BITMAP
30
10
44
82
FE
82
82
ENDCHAR
STARTCHAR NameMe.144
ENCODING 144
SWIDTH 1000 0
DWIDTH 8 0
BBX 6 7 0 0
BITMAP
0C
FC
40
78
40
40
FC
ENDCHAR
STARTCHAR quoteleft
ENCODING 145
SWIDTH 1000 0
DWIDTH 8 0
BBX 8 5 0 0
BITMAP
67
19
7F
98
77
ENDCHAR
STARTCHAR quoteright
ENCODING 146
SWIDTH 1000 0
DWIDTH 8 0
BBX 8 7 0 0
BITMAP
3F
48
88
FF
88
88
8F
ENDCHAR
STARTCHAR quotedblleft
ENCODING 147
SWIDTH 1000 0
DWIDTH 8 0
BBX 6 7 0 0
BITMAP
78
84
78
84
84
84
78
ENDCHAR
STARTCHAR quotedblright
ENCODING 148
SWIDTH 1000 0
DWIDTH 8 0
BBX 6 7 0 0
BITMAP
84
00
78
84
84
84
78
ENDCHAR
STARTCHAR bullet
ENCODING 149
SWIDTH 1000 0
DWIDTH 8 0
BBX 6 7 0 0
BITMAP
C0
00
78
84
84
84
78
ENDCHAR
STARTCHAR endash
ENCODING 150
SWIDTH 1000 0
DWIDTH 8 0
BBX 8 7 0 0
BITMAP
7E
81
42
42
42
42
3C
ENDCHAR
STARTCHAR emdash
ENCODING 151
SWIDTH 1000 0
DWIDTH 8 0
BBX 6 7 1 0
BITMAP
40
20
84
84
84
84
78
ENDCHAR
STARTCHAR tilde
ENCODING 152
SWIDTH 1000 0
DWIDTH 8 0
BBX 6 8 0 -1
BITMAP
84
00
84
84
84
7C
04
F8
ENDCHAR
STARTCHAR trademark
ENCODING 153
SWIDTH 1000 0
DWIDTH 8 0
BBX 6 7 1 0
BITMAP
84
30
48
84
84
48
30
ENDCHAR
STARTCHAR scaron
ENCODING 154
SWIDTH 1000 0
DWIDTH 8 0
BBX 6 7 0 0
BITMAP
84
00
84
84
84
84
78
ENDCHAR
STARTCHAR guilsinglright
ENCODING 155
SWIDTH 1000 0
DWIDTH 8 0
BBX 7 8 0 -1
BITMAP
10
10
7E
80
80
7E
10
10
ENDCHAR
STARTCHAR oe
ENCODING 156
SWIDTH 1000 0
DWIDTH 8 0
BBX 7 7 0 0
BITMAP
38
44
44
E0
40
82
FC
ENDCHAR
STARTCHAR NameMe.157
ENCODING 157
SWIDTH 1000 0
DWIDTH 8 0
BBX 5 8 1 -1
BITMAP
88
50
20
F8
20
F8
20
20
ENDCHAR
STARTCHAR zcaron
ENCODING 158
SWIDTH 1000 0
DWIDTH 8 0
BBX 8 8 0 -1
BITMAP
F8
84
84
F8
82
87
82
83
ENDCHAR
STARTCHAR Ydieresis
ENCODING 159
SWIDTH 1000 0
DWIDTH 8 0
BBX 7 8 0 -1
BITMAP
0C
12
10
38
10
10
90
60
ENDCHAR
STARTCHAR uni00A0
ENCODING 160
SWIDTH 1000 0
DWIDTH 8 0
BBX 7 7 0 0
BITMAP
1C
00
78
04
7C
84
7A
ENDCHAR
STARTCHAR exclamdown
ENCODING 161
SWIDTH 1000 0
DWIDTH 8 0
BBX 3 7 2 0
BITMAP
60
00
C0
40
40
40
E0
ENDCHAR
STARTCHAR cent
ENCODING 162
SWIDTH 1000 0
DWIDTH 8 0
BBX 6 7 0 0
BITMAP
08
10
78
84
84
84
78
ENDCHAR
STARTCHAR sterling
ENCODING 163
SWIDTH 1000 0
DWIDTH 8 0
BBX 7 7 0 0
BITMAP
08
10
84
84
84
84
7A
ENDCHAR
STARTCHAR currency
ENCODING 164
SWIDTH 1000 0
DWIDTH 8 0
BBX 6 7 0 0
BITMAP
64
98
B8
C4
84
84
84
ENDCHAR
STARTCHAR yen
ENCODING 165
SWIDTH 1000 0
DWIDTH 8 0
BBX 6 7 0 0
BITMAP
64
98
84
A4
94
84
84
ENDCHAR
STARTCHAR brokenbar
ENCODING 166
SWIDTH 1000 0
DWIDTH 8 0
BBX 6 6 1 1
BITMAP
78
88
88
74
00
FC
ENDCHAR
STARTCHAR section
ENCODING 167
SWIDTH 1000 0
DWIDTH 8 0
BBX 5 6 1 1
BITMAP
70
88
88
70
00
F8
ENDCHAR
STARTCHAR dieresis
ENCODING 168
SWIDTH 1000 0
DWIDTH 8 0
BBX 6 7 0 0
BITMAP
20
00
20
40
80
84
78
ENDCHAR
STARTCHAR copyright
ENCODING 169
SWIDTH 1000 0
DWIDTH 8 0
BBX 6 3 0 1
BITMAP
FC
C0
C0
ENDCHAR
STARTCHAR ordfeminine
ENCODING 170
SWIDTH 1000 0
DWIDTH 8 0
BBX 6 3 0 1
BITMAP
FC
0C
0C
ENDCHAR
STARTCHAR guillemotleft
ENCODING 171
SWIDTH 1000 0
DWIDTH 8 0
BBX 8 8 0 -1
BITMAP
42
44
48
56
69
42
84
0F
ENDCHAR
STARTCHAR logicalnot
ENCODING 172
SWIDTH 1000 0
DWIDTH 8 0
BBX 8 8 0 -1
BITMAP
42
44
48
53
65
49
8F
01
ENDCHAR
STARTCHAR uni00AD
ENCODING 173
SWIDTH 1000 0
DWIDTH 8 0
BBX 3 7 2 0
BITMAP
40
40
00
40
E0
E0
40
ENDCHAR
STARTCHAR registered
ENCODING 174
SWIDTH 1000 0
DWIDTH 8 0
BBX 7 5 0 1
BITMAP
22
44
88
44
22
ENDCHAR
STARTCHAR macron
ENCODING 175
SWIDTH 1000 0
DWIDTH 8 0
BBX 7 5 1 1
BITMAP
88
44
22
44
88
ENDCHAR
STARTCHAR degree
ENCODING 176
SWIDTH 1000 0
DWIDTH 8 0
BBX 7 8 0 -1
BITMAP
22
88
22
88
22
88
22
88
ENDCHAR
STARTCHAR plusminus
ENCODING 177
SWIDTH 1000 0
DWIDTH 8 0
BBX 8 8 0 -1
BITMAP
55
AA
55
AA
55
AA
55
AA
ENDCHAR
STARTCHAR uni00B2
ENCODING 178
SWIDTH 1000 0
DWIDTH 8 0
BBX 8 8 0 -1
BITMAP
DB
77
DB
EE
DB
77
DB
EE
ENDCHAR
STARTCHAR uni00B3
ENCODING 179
SWIDTH 1000 0
DWIDTH 8 0
BBX 2 8 3 -1
BITMAP
C0
C0
C0
C0
C0
C0
C0
C0
ENDCHAR
STARTCHAR acute
ENCODING 180
SWIDTH 1000 0
DWIDTH 8 0
BBX 5 8 0 -1
BITMAP
18
18
18
18
F8
18
18
18
ENDCHAR
STARTCHAR mu
ENCODING 181
SWIDTH 1000 0
DWIDTH 8 0
BBX 5 8 0 -1
BITMAP
18
18
F8
18
F8
18
18
18
ENDCHAR
STARTCHAR paragraph
ENCODING 182
SWIDTH 1000 0
DWIDTH 8 0
BBX 7 8 0 -1
BITMAP
36
36
36
36
F6
36
36
36
ENDCHAR
STARTCHAR periodcentered
ENCODING 183
SWIDTH 1000 0
DWIDTH 8 0
BBX 7 4 0 -1
BITMAP
FE
36
36
36
ENDCHAR
STARTCHAR cedilla
ENCODING 184
SWIDTH 1000 0
DWIDTH 8 0
BBX 5 6 0 -1
BITMAP
F8
18
F8
18
18
18
ENDCHAR
STARTCHAR uni00B9
ENCODING 185
SWIDTH 1000 0
DWIDTH 8 0
BBX 7 8 0 -1
BITMAP
36
36
F6
06
F6
36
36
36
ENDCHAR
STARTCHAR ordmasculine
ENCODING 186
SWIDTH 1000 0
DWIDTH 8 0
BBX 5 8 2 -1
BITMAP
D8
D8
D8
D8
D8
D8
D8
D8
ENDCHAR
STARTCHAR guillemotright
ENCODING 187
SWIDTH 1000 0
DWIDTH 8 0
BBX 7 6 0 -1
BITMAP
FE
06
F6
36
36
36
ENDCHAR
STARTCHAR onequarter
ENCODING 188
SWIDTH 1000 0
DWIDTH 8 0
BBX 7 5 0 2
BITMAP
36
36
F6
06
FE
ENDCHAR
STARTCHAR onehalf
ENCODING 189
SWIDTH 1000 0
DWIDTH 8 0
BBX 7 5 0 2
BITMAP
36
36
36
36
FE
ENDCHAR
STARTCHAR threequarters
ENCODING 190
SWIDTH 1000 0
DWIDTH 8 0
BBX 5 5 0 2
BITMAP
18
18
F8
18
F8
ENDCHAR
STARTCHAR questiondown
ENCODING 191
SWIDTH 1000 0
DWIDTH 8 0
BBX 5 4 0 -1
BITMAP
F8
18
18
18
ENDCHAR
STARTCHAR Agrave
ENCODING 192
SWIDTH 1000 0
DWIDTH 8 0
BBX 5 5 3 2
BITMAP
C0
C0
C0
C0
F8
ENDCHAR
STARTCHAR Aacute
ENCODING 193
SWIDTH 1000 0
DWIDTH 8 0
BBX 8 5 0 2
BITMAP
18
18
18
18
FF
ENDCHAR
STARTCHAR Acircumflex
ENCODING 194
SWIDTH 1000 0
DWIDTH 8 0
BBX 8 4 0 -1
BITMAP
FF
18
18
18
ENDCHAR
STARTCHAR Atilde
ENCODING 195
SWIDTH 1000 0
DWIDTH 8 0
BBX 5 8 3 -1
BITMAP
C0
C0
C0
C0
F8
C0
C0
C0
ENDCHAR
STARTCHAR Adieresis
ENCODING 196
SWIDTH 1000 0
DWIDTH 8 0
BBX 8 1 0 2
BITMAP
FF
ENDCHAR
STARTCHAR Aring
ENCODING 197
SWIDTH 1000 0
DWIDTH 8 0
BBX 8 8 0 -1
BITMAP
18
18
18
18
FF
18
18
18
ENDCHAR
STARTCHAR AE
ENCODING 198
SWIDTH 1000 0
DWIDTH 8 0
BBX 5 8 3 -1
BITMAP
C0
C0
F8
C0
F8
C0
C0
C0
ENDCHAR
STARTCHAR Ccedilla
ENCODING 199
SWIDTH 1000 0
DWIDTH 8 0
BBX 6 8 2 -1
BITMAP
D8
D8
D8
D8
DC
D8
D8
D8
ENDCHAR
STARTCHAR Egrave
ENCODING 200
SWIDTH 1000 0
DWIDTH 8 0
BBX 6 5 2 2
BITMAP
D8
D8
DC
C0
FC
ENDCHAR
STARTCHAR Eacute
ENCODING 201
SWIDTH 1000 0
DWIDTH 8 0
BBX 6 6 2 -1
BITMAP
FC
C0
DC
D8
D8
D8
ENDCHAR
STARTCHAR Ecircumflex
ENCODING 202
SWIDTH 1000 0
DWIDTH 8 0
BBX 8 5 0 2
BITMAP
36
36
F7
00
FF
ENDCHAR
STARTCHAR Edieresis
ENCODING 203
SWIDTH 1000 0
DWIDTH 8 0
BBX 8 6 0 -1
BITMAP
FF
00
F7
36
36
36
ENDCHAR
STARTCHAR Igrave
ENCODING 204
SWIDTH 1000 0
DWIDTH 8 0
BBX 6 8 2 -1
BITMAP
D8
D8
DC
C0
DC
D8
D8
D8
ENDCHAR
STARTCHAR Iacute
ENCODING 205
SWIDTH 1000 0
DWIDTH 8 0
BBX 8 3 0 2
BITMAP
FF
00
FF
ENDCHAR
STARTCHAR Icircumflex
ENCODING 206
SWIDTH 1000 0
DWIDTH 8 0
BBX 8 8 0 -1
BITMAP
36
36
F7
00
F7
36
36
36
ENDCHAR
STARTCHAR Idieresis
ENCODING 207
SWIDTH 1000 0
DWIDTH 8 0
BBX 8 5 0 2
BITMAP
18
18
FF
00
FF
ENDCHAR
STARTCHAR Eth
ENCODING 208
SWIDTH 1000 0
DWIDTH 8 0
BBX 8 5 0 2
BITMAP
36
36
36
36
FF
ENDCHAR
STARTCHAR Ntilde
ENCODING 209
SWIDTH 1000 0
DWIDTH 8 0
BBX 8 6 0 -1
BITMAP
FF
00
FF
18
18
18
ENDCHAR
STARTCHAR Ograve
ENCODING 210
SWIDTH 1000 0
DWIDTH 8 0
BBX 8 4 0 -1
BITMAP
FF
36
36
36
ENDCHAR
STARTCHAR Oacute
ENCODING 211
SWIDTH 1000 0
DWIDTH 8 0
BBX 6 5 2 2
BITMAP
D8
D8
D8
D8
FC
ENDCHAR
STARTCHAR Ocircumflex
ENCODING 212
SWIDTH 1000 0
DWIDTH 8 0
BBX 5 5 3 2
BITMAP
C0
C0
F8
C0
F8
ENDCHAR
STARTCHAR Otilde
ENCODING 213
SWIDTH 1000 0
DWIDTH 8 0
BBX 5 6 3 -1
BITMAP
F8
C0
F8
C0
C0
C0
ENDCHAR
STARTCHAR Odieresis
ENCODING 214
SWIDTH 1000 0
DWIDTH 8 0
BBX 6 4 2 -1
BITMAP
FC
D8
D8
D8
ENDCHAR
STARTCHAR multiply
ENCODING 215
SWIDTH 1000 0
DWIDTH 8 0
BBX 8 8 0 -1
BITMAP
36
36
36
36
FF
36
36
36
ENDCHAR
STARTCHAR Oslash
ENCODING 216
SWIDTH 1000 0
DWIDTH 8 0
BBX 8 8 0 -1
BITMAP
18
18
FF
18
FF
18
18
18
ENDCHAR
STARTCHAR Ugrave
ENCODING 217
SWIDTH 1000 0
DWIDTH 8 0
BBX 5 5 0 2
BITMAP
18
18
18
18
F8
ENDCHAR
STARTCHAR Uacute
ENCODING 218
SWIDTH 1000 0
DWIDTH 8 0
BBX 5 4 3 -1
BITMAP
F8
C0
C0
C0
ENDCHAR
STARTCHAR Ucircumflex
ENCODING 219
SWIDTH 1000 0
DWIDTH 8 0
BBX 8 8 0 -1
BITMAP
FF
FF
FF
FF
FF
FF
FF
FF
ENDCHAR
STARTCHAR Udieresis
ENCODING 220
SWIDTH 1000 0
DWIDTH 8 0
BBX 8 4 0 -1
BITMAP
FF
FF
FF
FF
ENDCHAR
STARTCHAR Yacute
ENCODING 221
SWIDTH 1000 0
DWIDTH 8 0
BBX 4 8 0 -1
BITMAP
F0
F0
F0
F0
F0
F0
F0
F0
ENDCHAR
STARTCHAR Thorn
ENCODING 222
SWIDTH 1000 0
DWIDTH 8 0
BBX 4 8 4 -1
BITMAP
F0
F0
F0
F0
F0
F0
F0
F0
ENDCHAR
STARTCHAR germandbls
ENCODING 223
SWIDTH 1000 0
DWIDTH 8 0
BBX 8 4 0 3
BITMAP
FF
FF
FF
FF
ENDCHAR
STARTCHAR agrave
ENCODING 224
SWIDTH 1000 0
DWIDTH 8 0
BBX 7 5 0 0
BITMAP
62
94
88
94
62
ENDCHAR
STARTCHAR aacute
ENCODING 225
SWIDTH 1000 0
DWIDTH 8 0
BBX 6 7 0 -1
BITMAP
78
84
F8
84
F8
80
80
ENDCHAR
STARTCHAR acircumflex
ENCODING 226
SWIDTH 1000 0
DWIDTH 8 0
BBX 6 6 0 0
BITMAP
FC
84
80
80
80
80
ENDCHAR
STARTCHAR atilde
ENCODING 227
SWIDTH 1000 0
DWIDTH 8 0
BBX 7 6 0 0
BITMAP
FE
28
28
28
28
28
ENDCHAR
STARTCHAR adieresis
ENCODING 228
SWIDTH 1000 0
DWIDTH 8 0
BBX 6 7 0 0
BITMAP
FC
84
40
20
40
84
FC
ENDCHAR
STARTCHAR aring
ENCODING 229
SWIDTH 1000 0
DWIDTH 8 0
BBX 7 5 0 0
BITMAP
7E
88
88
88
70
ENDCHAR
STARTCHAR ae
ENCODING 230
SWIDTH 1000 0
DWIDTH 8 0
BBX 7 7 0 -1
BITMAP
42
42
42
42
7C
40
80
ENDCHAR
STARTCHAR ccedilla
ENCODING 231
SWIDTH 1000 0
DWIDTH 8 0
BBX 7 6 0 0
BITMAP
76
88
08
08
08
08
ENDCHAR
STARTCHAR egrave
ENCODING 232
SWIDTH 1000 0
DWIDTH 8 0
BBX 5 8 0 -1
BITMAP
F8
20
70
88
88
70
20
F8
ENDCHAR
STARTCHAR eacute
ENCODING 233
SWIDTH 1000 0
DWIDTH 8 0
BBX 7 7 0 0
BITMAP
38
44
82
FE
82
44
38
ENDCHAR
STARTCHAR ecircumflex
ENCODING 234
SWIDTH 1000 0
DWIDTH 8 0
BBX 7 7 0 0
BITMAP
38
44
82
82
28
28
6C
ENDCHAR
STARTCHAR edieresis
ENCODING 235
SWIDTH 1000 0
DWIDTH 8 0
BBX 6 7 0 0
BITMAP
1C
10
08
7C
84
84
78
ENDCHAR
STARTCHAR igrave
ENCODING 236
SWIDTH 1000 0
DWIDTH 8 0
BBX 7 4 0 1
BITMAP
7C
92
92
7C
ENDCHAR
STARTCHAR iacute
ENCODING 237
SWIDTH 1000 0
DWIDTH 8 0
BBX 8 8 0 -1
BITMAP
02
04
7E
89
91
7E
40
80
ENDCHAR
STARTCHAR icircumflex
ENCODING 238
SWIDTH 1000 0
DWIDTH 8 0
BBX 5 7 0 0
BITMAP
38
40
80
F8
80
40
38
ENDCHAR
STARTCHAR idieresis
ENCODING 239
SWIDTH 1000 0
DWIDTH 8 0
BBX 6 7 0 0
BITMAP
78
84
84
84
84
84
84
ENDCHAR
STARTCHAR eth
ENCODING 240
SWIDTH 1000 0
DWIDTH 8 0
BBX 6 5 0 1
BITMAP
FC
00
FC
00
FC
ENDCHAR
STARTCHAR ntilde
ENCODING 241
SWIDTH 1000 0
DWIDTH 8 0
BBX 6 7 0 0
BITMAP
20
20
FC
20
20
00
FC
ENDCHAR
STARTCHAR ograve
ENCODING 242
SWIDTH 1000 0
DWIDTH 8 0
BBX 6 7 0 0
BITMAP
40
20
10
20
40
00
FC
ENDCHAR
STARTCHAR oacute
ENCODING 243
SWIDTH 1000 0
DWIDTH 8 0
BBX 6 7 0 0
BITMAP
10
20
40
20
10
00
FC
ENDCHAR
STARTCHAR ocircumflex
ENCODING 244
SWIDTH 1000 0
DWIDTH 8 0
BBX 5 8 3 -1
BITMAP
70
88
88
80
80
80
80
80
ENDCHAR
STARTCHAR otilde
ENCODING 245
SWIDTH 1000 0
DWIDTH 8 0
BBX 5 8 0 -1
BITMAP
08
08
08
08
08
88
88
70
ENDCHAR
STARTCHAR odieresis
ENCODING 246
SWIDTH 1000 0
DWIDTH 8 0
BBX 5 7 0 0
BITMAP
20
20
00
F8
00
20
20
ENDCHAR
STARTCHAR divide
ENCODING 247
SWIDTH 1000 0
DWIDTH 8 0
BBX 6 5 0 1
BITMAP
64
98
00
64
98
ENDCHAR
STARTCHAR oslash
ENCODING 248
SWIDTH 1000 0
DWIDTH 8 0
BBX 5 4 1 3
BITMAP
70
88
88
70
ENDCHAR
STARTCHAR ugrave
ENCODING 249
SWIDTH 1000 0
DWIDTH 8 0
BBX 2 2 3 2
BITMAP
C0
C0
ENDCHAR
STARTCHAR uacute
ENCODING 250
SWIDTH 1000 0
DWIDTH 8 0
BBX 2 1 3 2
BITMAP
C0
ENDCHAR
STARTCHAR ucircumflex
ENCODING 251
SWIDTH 1000 0
DWIDTH 8 0
BBX 7 8 1 -1
BITMAP
0E
08
08
08
C8
48
38
18
ENDCHAR
STARTCHAR udieresis
ENCODING 252
SWIDTH 1000 0
DWIDTH 8 0
BBX 5 5 1 2
BITMAP
B0
88
88
88
88
ENDCHAR
STARTCHAR yacute
ENCODING 253
SWIDTH 1000 0
DWIDTH 8 0
BBX 4 5 1 2
BITMAP
60
90
20
40
F0
ENDCHAR
STARTCHAR thorn
ENCODING 254
SWIDTH 1000 0
DWIDTH 8 0
BBX 4 4 2 1
BITMAP
F0
F0
F0
F0
ENDCHAR
STARTCHAR ydieresis
ENCODING 255
SWIDTH 1000 0
DWIDTH 8 0
BBX 1 1 7 -1
BITMAP
00
ENDCHAR
ENDFONT
